<svg width="709" height="709" xmlns="http://www.w3.org/2000/svg"><path d="M245.987 333.993h79.587V41.627h-79.587v292.366zm-43.482 41.676h166.523V0H202.505v375.669zM0 460.016h707.818v-41.505H0zm43.322 160.227h204.594v-79.236H43.322v79.236zM0 708.725h43.322v-47.026h247.927V499.513H0v209.212zM541.602 41.627v334.036h43.454V124.957l79.57-83.297v334.003h43.499V0h-61.078l-61.991 64.705V0h-61.05L418.51 109.194v266.47h43.509v-250.69zm-174.25 578.616h120.713v-79.236H367.352v79.236zm165.912 0h121.633v-79.236H533.264v79.236zm-209.256 41.456h164.063v47.026h45.193v-47.026h164.95V499.513H324.007v162.186zM43.498 124.973l79.555-83.313v292.338H43.498V124.973zm79.555 250.69h43.487V0h-61.056L0 109.194v266.47h123.053z" fill="#FFF" fill-rule="evenodd" opacity=".02"/></svg>