<?xml version="1.0" encoding="UTF-8"?>
<!DOCTYPE svg PUBLIC "-//W3C//DTD SVG 1.1//EN" "http://www.w3.org/Graphics/SVG/1.1/DTD/svg11.dtd">
<!-- Creator: CorelDRAW 2018 (64-Bit Оценочная версия) -->
<svg xmlns="http://www.w3.org/2000/svg" xml:space="preserve" width="12.697mm" height="12.697mm" version="1.1" style="shape-rendering:geometricPrecision; text-rendering:geometricPrecision; image-rendering:optimizeQuality; fill-rule:evenodd; clip-rule:evenodd"
viewBox="0 0 199.6 199.6"
 xmlns:xlink="http://www.w3.org/1999/xlink">
 <defs>
  <style type="text/css">
   <![CDATA[
    .fil0 {fill:white;fill-rule:nonzero}
   ]]>
  </style>
 </defs>
 <g id="Слой_x0020_1">
  <metadata id="CorelCorpID_0Corel-Layer"/>
  <path class="fil0" d="M168.41 15.59l-10.13 0 0 -7.8c0,-4.31 -3.49,-7.8 -7.8,-7.8 -4.31,0 -7.8,3.49 -7.8,7.8l0 7.8 -35.48 0 0 -7.8c0,-4.31 -3.49,-7.8 -7.8,-7.8 -4.31,0 -7.8,3.49 -7.8,7.8l0 7.8 -35.09 0 0 -7.8c0,-4.31 -3.49,-7.8 -7.8,-7.8 -4.31,0 -7.8,3.49 -7.8,7.8l0 7.8 -9.74 0c-17.2,0 -31.19,13.99 -31.19,31.19l0 121.63c0,17.2 13.99,31.19 31.19,31.19l59.65 0c4.31,0 7.8,-3.49 7.8,-7.8 0,-4.31 -3.49,-7.8 -7.8,-7.8l-59.65 0c-8.6,0 -15.59,-7 -15.59,-15.59l0 -121.63c0,-8.6 7,-15.59 15.59,-15.59l9.74 0 0 7.8c0,4.31 3.49,7.8 7.8,7.8 4.31,0 7.8,-3.49 7.8,-7.8l0 -7.8 35.09 0 0 7.8c0,4.31 3.49,7.8 7.8,7.8 4.31,0 7.8,-3.49 7.8,-7.8l0 -7.8 35.48 0 0 7.8c0,4.31 3.49,7.8 7.8,7.8 4.31,0 7.8,-3.49 7.8,-7.8l0 -7.8 10.13 0c8.6,0 15.59,6.99 15.59,15.59l0 44.44c0,4.31 3.49,7.8 7.8,7.8 4.31,0 7.8,-3.49 7.8,-7.8l0 -44.44c0,-17.2 -13.99,-31.19 -31.19,-31.19zm-4.68 129.04l-3.51 0 0 -8.19c0,-4.31 -3.49,-7.8 -7.8,-7.8 -4.31,0 -7.8,3.49 -7.8,7.8l0 15.98c0,4.31 3.49,7.8 7.8,7.8l11.31 0c4.31,0 7.8,-3.49 7.8,-7.8 0,-4.31 -3.49,-7.8 -7.8,-7.8zm20.27 7.8c0,-17.41 -14.17,-31.58 -31.58,-31.58 -17.41,0 -31.58,14.17 -31.58,31.58 0,17.41 14.17,31.58 31.58,31.58 17.41,0 31.58,-14.17 31.58,-31.58zm15.59 0c0,26.01 -21.16,47.17 -47.17,47.17 -26.01,0 -47.17,-21.16 -47.17,-47.17 0,-26.01 21.16,-47.17 47.17,-47.17 26.01,0 47.17,21.16 47.17,47.17zm-116.95 -10.53c-4.31,0 -7.8,3.49 -7.8,7.8l0 0c0,4.31 3.49,7.8 7.8,7.8 4.31,0 7.8,-3.49 7.8,-7.8l0 0c0,-4.31 -3.49,-7.8 -7.8,-7.8zm7.8 -26.12c0,-4.31 -3.49,-7.8 -7.8,-7.8 -4.31,0 -7.8,3.49 -7.8,7.8l0 0c0,4.31 3.49,7.8 7.8,7.8 4.31,0 7.8,-3.49 7.8,-7.8l0 0zm0 -33.92c0,-4.31 -3.49,-7.8 -7.8,-7.8 -4.31,0 -7.8,3.49 -7.8,7.8l0 0c0,4.31 3.49,7.8 7.8,7.8 4.31,0 7.8,-3.49 7.8,-7.8l0 0zm-41.71 60.04c-4.31,0 -7.8,3.49 -7.8,7.8l0 0c0,4.31 3.49,7.8 7.8,7.8 4.31,0 7.8,-3.49 7.8,-7.8l0 0c0,-4.31 -3.49,-7.8 -7.8,-7.8zm7.8 -26.12c0,-4.31 -3.49,-7.8 -7.8,-7.8 -4.31,0 -7.8,3.49 -7.8,7.8l0 0c0,4.31 3.49,7.8 7.8,7.8 4.31,0 7.8,-3.49 7.8,-7.8l0 0zm101.75 -33.92l0 0c0,-4.31 -3.49,-7.8 -7.8,-7.8 -4.31,0 -7.8,3.49 -7.8,7.8l0 0c0,4.31 3.49,7.8 7.8,7.8 4.31,0 7.8,-3.49 7.8,-7.8zm-33.92 0l0 0c0,-4.31 -3.49,-7.8 -7.8,-7.8 -4.31,0 -7.8,3.49 -7.8,7.8l0 0c0,4.31 3.49,7.8 7.8,7.8 4.31,0 7.8,-3.49 7.8,-7.8zm-67.83 0c0,4.31 -3.49,7.8 -7.8,7.8 -4.31,0 -7.8,-3.49 -7.8,-7.8l0 0c0,-4.31 3.49,-7.8 7.8,-7.8 4.31,0 7.8,3.49 7.8,7.8l0 0z"/>
 </g>
</svg>
