<?xml version="1.0" encoding="UTF-8"?>
<!DOCTYPE svg PUBLIC "-//W3C//DTD SVG 1.1//EN" "http://www.w3.org/Graphics/SVG/1.1/DTD/svg11.dtd">
<!-- Creator: CorelDRAW 2018 (64-Bit Оценочная версия) -->
<svg xmlns="http://www.w3.org/2000/svg" xml:space="preserve" width="14.3933mm" height="13.389mm" version="1.1" style="shape-rendering:geometricPrecision; text-rendering:geometricPrecision; image-rendering:optimizeQuality; fill-rule:evenodd; clip-rule:evenodd"
viewBox="0 0 555.82 517.04"
 xmlns:xlink="http://www.w3.org/1999/xlink">
 <defs>
  <style type="text/css">
   <![CDATA[
    .fil0 {fill:white}
   ]]>
  </style>
 </defs>
 <g id="Слой_x0020_1">
  <metadata id="CorelCorpID_0Corel-Layer"/>
  <path class="fil0" d="M275.73 385.38c25.69,0 45.4,-4.75 65.31,-19.37 3.54,-2.6 11.83,-8.96 13.94,-12.11l-29.31 -17.37c-29.67,19.87 -56.67,23.1 -87.93,2.17 -5.36,1.25 -7.65,4.28 -11.94,5.43 0.2,0.17 0.53,0.14 0.63,0.46l5.68 4.09c6.51,6.34 5.97,22.43 7.68,27.06 1.47,3.98 1.71,2.93 6.45,4.4 9.8,3.03 18.18,5.24 29.5,5.24zm-174.78 1.08c0,10.78 8.87,18.93 18.45,19.05 16,0.2 26.04,-18.66 13.9,-31.85 -12.25,-13.3 -32.35,-4.14 -32.35,12.8zm54.28 -3.26c0,16.06 -5.38,28.41 -19.56,35.8 -32.75,17.08 -70.36,-27.44 -42.08,-57.28 23.9,-25.22 61.65,-3.65 61.65,21.48zm9.77 7.6c0,-16.28 -2.27,-26.17 -14.05,-38.05 -5.83,-5.89 -20.48,-13.62 -32.35,-12.69 -25.33,1.98 -44.08,20.2 -44.75,45.38 -0.63,23.26 16.27,43.52 42.92,47.16 12.17,1.67 24.32,-4.13 33.2,-11.22 6.74,-5.38 15.02,-18.66 15.02,-30.57zm17.37 -4.34c0,25.54 -13.73,45.97 -34.01,56.09 -17.24,8.6 -37.41,9.73 -54.66,1.1 -19.63,-9.82 -36.17,-29.59 -36.17,-51.75l0 -9.78c0,-29.94 28.77,-58.62 58.62,-58.62 24.15,0 43.51,9.26 55.18,27.32 6.92,10.72 11.04,21.44 11.04,35.64zm35.82 -69.47c-5.48,1.27 -18.07,9.95 -23.88,13.03 1.2,5.16 1.55,7.17 5.43,9.77 3.29,-0.88 9.18,-4.75 12.01,-6.45 4.17,-2.51 7.53,-4.27 11.88,-6.57 -1.13,-4.85 -3.12,-5.4 -5.43,-9.77zm147.64 23.88c2.18,-3.26 4.33,-6.51 6.51,-9.77 -5.22,-2.76 -9.23,-5.21 -14.46,-8.34 -3.61,-2.16 -11.2,-7.09 -14.85,-7.94 -0.89,3.32 -3.68,6.47 -5.43,9.77l28.22 16.28zm-30.4 -56.45c0,-19.25 -2.51,-31.37 -17.08,-45.88 -36.5,-36.38 -93.65,-4.1 -93.65,36.11 0,14.21 1.03,25.97 10.69,38.16 6.23,7.86 3.17,4.78 9.59,9.95 17.06,13.75 39.3,16.98 58.98,7.27 10.23,-5.05 5.24,-2.51 11.78,-7.77 10.48,-8.41 19.69,-23.71 19.69,-37.85zm-79.25 -108.56c-17.66,1.47 -45.43,20.59 -56.92,35.35 -15.61,20.05 -24.49,40.96 -24.49,68.87 4.32,0.36 27.14,11.38 27.14,26.05 2.74,-1.83 4.9,-3.46 8.68,-4.34 -0.31,-3.77 -1.48,-6.38 -2.01,-9.93 -5.87,-38.98 19.26,-74.66 47.61,-81.26l0 -34.74zm28.22 -3.26l-10.86 0 0 33.65 10.86 0 0 -33.65zm84.67 43.42c-5.13,0 -9.63,-6.92 -14.93,-12.21 -11.16,-11.16 -17.6,-15.38 -32.1,-22.18 -6.37,-2.98 -17,-5.29 -20.27,-6.86l0 34.74c26.93,6.28 51.02,37.27 51.02,70.56 0,8.25 -2.17,12.33 -2.17,19.54 7.09,1.65 22.44,14.62 29.31,15.2 0.79,-9.5 5.43,-11.75 5.43,-38 0,-19.21 -7.25,-32.88 -6.11,-37.55 3,-12.3 25.98,-15.43 22.37,52.72 -1.05,19.93 -11.64,44.06 -20.43,56.64 -32.06,45.87 -87.49,65.96 -141.71,46.94 -3.52,-1.24 -5.24,-2.29 -8.55,-3.46 -6.5,-2.28 -19.71,5.19 -20.34,12.81 4.82,1.12 8.11,3.77 12.71,5.74 41.11,17.64 38.31,-0.53 38.31,37.68l36.91 0c0,-30.53 -3.16,-24.33 21.72,-31.47 8.25,-2.36 15.77,-5.73 23.15,-9.42 5.3,-2.65 17.3,-8.23 19.37,-13.19 3.82,-9.16 2.15,-10.08 9.61,-22.96 17.68,-30.56 36.38,-29.79 40.32,-41.1 12.93,-37.16 -0.46,-33.84 36.73,-33.84l0 -37.99c-39.91,0 -23.15,3.45 -37.83,-32.74 -6.03,-14.86 -16.45,-28.79 -16.45,-34.57 0,-7.44 13.52,-15.97 17.37,-21.71 -4.89,-3.27 -21.54,-20.93 -24.97,-26.05 -5.92,3.96 -15.27,18.45 -22.8,18.45 -4.6,0 -11.95,-5.73 -15.93,-7.95 -51.72,-28.79 -50.29,2.53 -50.29,-47.41l-36.91 0c0,48.8 2.27,19.37 -49.58,47.03 -4.39,2.34 -11.34,8.33 -16.64,8.33 -7.44,0 -15.97,-13.52 -21.71,-17.37l-25.8 25.22c4.41,6.74 17.12,13.04 17.12,22.54 0,4.85 -11.16,19.46 -16.14,32.72 -14.28,38.07 -0.11,33.51 -38.14,33.51 0,12.68 2.51,3.95 9.46,11.16 7.68,7.96 3.02,26.83 24.19,26.83 5.43,0 10.63,-5.26 14.11,-7.6 0,-6.76 -1.65,-5.85 -0.49,-13.46 2.2,-14.41 0.2,-20.9 7.62,-39.12 7.07,-17.39 12.37,-25.44 23.1,-38.78 9.08,-11.28 21.34,-19.96 34.55,-27.32 36.61,-20.41 90.27,-18.24 123.81,6.07 4.15,3 7.38,5.47 11.16,8.38 4.04,3.12 17.01,15.55 18.55,20.61 1.46,4.78 -2.29,10.88 -7.71,10.88zm-53.19 -93.36l47.77 19.54c9.83,-6.58 18.88,-28.7 36.67,-9.53l10.82 11.98c6.48,6.48 19.81,16.35 19.81,25.78 0,10.16 -16.28,17.23 -16.28,22.8 0,1.31 18,30.38 19.54,48.85 11.55,0 23.59,-2.03 28.96,4.7 5.07,6.36 2.49,30.54 2.53,45.24 0.07,23.49 -4.4,19.54 -30.4,21.71 -1.02,4.37 -2.24,8.65 -3.26,13.03 13.26,-1.1 6.62,-2.17 28.23,-2.17 24.46,0 47.07,13 62.69,28.49 44.78,44.41 33.99,123.97 -25.77,153.9 -29.03,14.54 -62.97,13.26 -91.01,-3.46 -18.08,-10.78 -4.06,-18.26 -0.19,-18.26 7.9,0 38.25,28.92 81.43,7.62 26.31,-12.98 47.04,-38.62 46.21,-72.61 -2.42,-99.41 -146.62,-109.63 -157.92,-3.2 -2.15,20.22 9.63,39.05 11.76,45.51 2.99,9.09 -9.14,18.94 -16.96,3.89 -7.91,-15.22 -11.19,-27.89 -11.19,-47.43 -6.23,1.45 -28.36,15.03 -43.42,16.28 0,35.26 -3.27,30.4 -53.19,30.4 -19.18,0 -18.45,-11.65 -18.45,-30.4 -7.62,-0.63 -18.99,-6.21 -24.97,-7.6 4.23,6.31 6.51,3.22 6.51,14.11 0,3.79 -11.81,28.22 -24.97,28.22 -4.85,0 -39.65,-25.34 -39.06,16.3 0.22,16.11 -6.16,16.81 -19.32,19.77 -29.24,6.58 -24.47,-10.19 -31.74,-21.95 -3.24,-5.24 -7.49,-7.61 -14.11,-7.61 -8.05,0 -10.77,3.66 -14.93,7.87 -10.8,10.94 -14.15,13.86 -31.6,0.66 -8.75,-6.62 -12.09,-7.82 -12.09,-18.3 0,-6.32 8.18,-13.73 7.23,-22.37 -1.04,-9.45 -5.85,-14.67 -15.22,-16.33 -12.05,-2.12 -30.01,8.11 -30.01,-34.04 0,-10.15 9.72,-11.95 15.6,-13.71 18.88,-5.67 18,-23.75 7.2,-32.97 -13.82,-11.8 -11.92,-16.08 -0.88,-32.36 16.96,-25.02 21.86,-4.55 37.79,-4.55 27.86,0 12.2,-28.33 21.9,-37.81 4.8,-4.7 7.49,-3.04 12.84,-5.61 0,-26.62 2.04,-24.97 31.48,-24.97 1.36,-16.29 13.56,-36.59 20.63,-49.94 -3.88,-2.6 -6.57,-6.07 -10.05,-9.49 -15.69,-15.44 -3.86,-21.68 12.49,-38 5.12,-5.12 16.54,-19.81 24.7,-19.81 8.32,0 16.62,13.23 22.8,17.37 1.28,-0.3 21.84,-11.08 34.59,-15.34 3.85,-1.29 9.6,-2.48 13.17,-4.2 0,-8.6 -1.38,-23.1 4.02,-28.55 1.17,-1.18 5.08,-4.02 6.84,-4.02l48.85 0c14.52,0 11.94,22.8 11.94,32.57z"/>
  <path class="fil0" d="M453.55 327.93c51.66,0 93.54,41.88 93.54,93.54 0,51.66 -41.88,93.54 -93.54,93.54 -51.66,0 -93.54,-41.88 -93.54,-93.54 0,-51.66 41.88,-93.54 93.54,-93.54zm-7.51 41.16l0 5.43c-41.77,0 -37.48,51.84 -6.55,53.23 7.77,0.34 16.15,-0.4 23.93,-0.06 20.17,0.89 15.87,18.57 5.43,19.58 -18.08,1.76 -48.87,-5.94 -48.87,8.67 0,11.35 13.01,8.68 26.05,8.68 0,18.38 17.37,20.18 17.37,0 30.3,0 36.43,-25.92 25.88,-42.17 -13.35,-20.55 -42.74,-4.8 -53.67,-13.63 -5.99,-4.83 -5.44,-16.78 8.18,-17 17.09,-0.29 36.25,3.38 39.42,-6.25 4,-12.17 -13.68,-11.05 -19.81,-11.05 0,-7.99 0.92,-17.37 -9.77,-17.37 -5.07,0 -7.6,6.59 -7.6,11.94z"/>
  <path class="fil0" d="M273.56 10.86c0,77.11 7.3,43.76 -59.03,65.8 -36.2,12.03 -71.69,35.67 -95.46,65.2l-25.34 35.53c-2.34,1.58 -12.31,4.04 -12.31,-8.05 0,-6.99 24.42,-38.69 29.57,-44.25 19.01,-20.52 28.62,-27.38 50.33,-41.95l23.85 -13.06c15.83,-7.14 38.91,-15.08 56.14,-17.69 5.91,-0.89 10.85,-1.27 15.98,-2.47l0 -32.57c-19.21,0 -54.5,9.42 -71.5,16.42 -27.67,11.4 -50.33,24.79 -73.21,44.03 -34.13,28.7 -56.61,62.4 -74.11,103.93 -3.21,7.61 -4.68,13.86 -7.39,21.92 -3.36,9.97 -9.35,39.47 -9.35,50.36l32.57 0c0.79,-9.5 7.87,-50.12 14.41,-56.18 2.43,-2.25 5.75,-2.65 8.43,-1.51 11.16,4.73 0.95,17.93 -3.78,44.2 -6.24,34.67 4.39,30.87 -54.89,30.87 -6.92,0 -14.11,-4.62 -14.11,-10.86 0,-51.95 23.73,-104.67 49.71,-143.52 8.77,-13.11 18.83,-24.35 29.81,-35.33 14.44,-14.44 18.3,-17.96 34.15,-29.9 6.61,-4.98 12.7,-8.43 19.64,-12.92 6.44,-4.17 13.94,-8.38 20.83,-11.75 6.97,-3.41 14.35,-6.36 22.03,-9.45 22.36,-9.01 56.64,-17.67 82.2,-17.67 5.46,0 10.86,5.39 10.86,10.86z"/>
  <path class="fil0" d="M465.71 77.08c0,7.44 -10.49,15.38 -14.93,19.81 -6.17,6.16 -11.63,11.98 -17.87,17.96 -12.95,12.4 -23.78,-8.44 -55.12,-24.76 -20.65,-10.75 -44.58,-19.07 -68.2,-21.9 -28.52,-3.42 -23,-3.17 -23,-57.33 0,-5.46 5.39,-10.86 10.86,-10.86 41.93,0 104.62,22.48 136.95,46.51 8.82,6.56 31.31,19.65 31.31,30.56z"/>
  <path class="fil0" d="M505.88 254.02l32.57 0c0,-22.53 -10.26,-50.48 -10.85,-57.54 -5.66,0.47 -21.19,9.8 -30.4,11.94 0.1,4.66 8.36,31.26 8.68,45.59zm49.94 6.51c0,6.24 -7.2,10.86 -14.12,10.86 -65.43,0 -45.36,5.39 -58.18,-46.03 -5.95,-23.86 -10.7,-24.85 17.09,-36.32 36.9,-15.23 37.2,-20.9 48.48,23.95 3.46,13.76 6.73,30.89 6.73,47.54z"/>
  <path class="fil0" d="M477.66 166.09c8.16,-0.68 25.17,-11.42 31.48,-11.94 -4.49,-8.48 -8.63,-15.11 -13.89,-23.01l-15.41 -21.49 -24.15 23.62c5.94,6.64 20.38,26.83 21.98,32.83zm49.94 -10.86c0,11.48 -12.38,14.02 -22.02,18.15 -40.88,17.52 -31.39,15.61 -50.5,-12.95 -3.16,-4.73 -5.73,-8.23 -9.05,-12.65 -10.52,-14.04 -12.8,-16.02 0.42,-29.19 16.1,-16.04 29.14,-35.9 41.84,-23.93 4.22,3.98 7.83,8.79 11.4,13.57 3.58,4.8 7.48,9.76 10.48,14.49 3.06,4.8 17.43,27.36 17.43,32.51z"/>
  <path class="fil0" d="M302.87 289.85c0,-27.68 2.38,-22.26 -9.82,-29.26 -15.21,-8.72 -10.92,-8.35 -25.25,-0.39 -13.18,7.32 -10.52,4.64 -10.52,29.65 0,2.99 1.76,3.44 3.92,4.76 22.48,13.74 15.73,12.75 37.05,0.38 2.29,-1.33 4.63,-1.94 4.63,-5.14zm16.28 -24.97c0,32.63 3.71,34.98 -14.72,46.07 -26.55,15.97 -23.71,14.09 -47.21,0.66 -19.93,-11.38 -16.23,-13.04 -16.23,-46.73 0,-3.75 3.39,-9.04 5.33,-10.96 2.2,-2.17 7.32,-4.98 10.48,-6.89 25.9,-15.61 23.31,-12.43 46.44,0.1 6.02,3.26 15.91,8.58 15.91,17.74z"/>
 </g>
</svg>
