<?xml version="1.0" encoding="UTF-8"?>
<!DOCTYPE svg PUBLIC "-//W3C//DTD SVG 1.1//EN" "http://www.w3.org/Graphics/SVG/1.1/DTD/svg11.dtd">
<!-- Creator: CorelDRAW 2018 (64-Bit Оценочная версия) -->
<svg xmlns="http://www.w3.org/2000/svg" xml:space="preserve" width="13.208mm" height="12.7662mm" version="1.1" style="shape-rendering:geometricPrecision; text-rendering:geometricPrecision; image-rendering:optimizeQuality; fill-rule:evenodd; clip-rule:evenodd"
viewBox="0 0 2065.64 1996.54"
 xmlns:xlink="http://www.w3.org/1999/xlink">
 <defs>
  <style type="text/css">
   <![CDATA[
    .fil0 {fill:white;fill-rule:nonzero}
   ]]>
  </style>
 </defs>
 <g id="Слой_x0020_1">
  <metadata id="CorelCorpID_0Corel-Layer"/>
  <g id="_2615559097408">
   <path class="fil0" d="M1300.19 1930l19.05 66.55c24.21,-6.91 48.2,-14.76 71.63,-23.38l-23.88 -64.97c-21.88,8.02 -44.32,15.37 -66.8,21.8z"/>
   <path class="fil0" d="M1996.78 1098.66c-36.16,341.91 -250.21,639.32 -562.97,782.17l28.65 63c335.17,-153.08 564.5,-471.82 603.19,-838.25l-68.88 -6.91z"/>
   <path class="fil0" d="M765.48 66.56l-19.05 -66.55c-24.21,6.93 -48.2,14.79 -71.63,23.4l23.88 64.97c21.88,-8.04 44.32,-15.39 66.8,-21.82z"/>
   <path class="fil0" d="M631.86 115.76l-28.65 -63c-335.17,153.09 -564.5,471.79 -603.19,838.23l68.88 6.91c36.14,-341.91 250.21,-639.32 562.97,-782.15z"/>
   <path class="fil0" d="M842.79 765.14c23.77,59.4 34.14,123.32 30.36,187.19 0.72,71.21 1.5,138.42 46.39,201.34 27.76,33.98 68.69,54.58 112.56,56.66 13.39,1.09 26.84,1.09 40.24,0 -9.43,-104.2 -35.61,-206.17 -77.57,-302.03l63.34 -27.7c43.77,99.83 71.58,205.89 82.4,314.32 15.91,-6.01 30.51,-15 43.1,-26.41 53.72,-51.94 80.67,-187.09 2.66,-289.44 -109.37,-143.51 -269.36,-129.96 -343.47,-113.93z"/>
   <path class="fil0" d="M1032.85 513.77c-267.6,0 -484.54,216.92 -484.54,484.52 0,267.6 216.93,484.54 484.54,484.54 267.57,0 484.52,-216.93 484.52,-484.54 -0.28,-267.46 -217.06,-484.24 -484.52,-484.52zm198.95 704.42c-24.84,22.46 -54.49,38.91 -86.69,48.12 1.31,38.52 0.48,77.05 -2.49,115.48l-69.02 -5.61c2.44,-32.17 3.27,-64.43 2.46,-96.68 -7.69,0.58 -15.45,0.95 -23.18,0.95 -9.09,0 -18.11,-0.38 -27.12,-1.2 -64.14,-3.16 -123.61,-34.39 -162.65,-85.37 -57.57,-80.54 -58.49,-165.68 -59.29,-240.8 -0.77,-67.89 -1.45,-132.01 -41.54,-189.39 -10.98,-15.65 -7.18,-37.25 8.46,-48.22 2.42,-1.69 5.02,-3.07 7.77,-4.08 2.85,-1.09 287.9,-103.84 462.84,125.61 96.24,126.19 72.19,302.17 -9.57,381.19z"/>
   <path class="fil0" d="M1738.02 859.85c-15.95,0.02 -29.84,-10.88 -33.64,-26.38 -16.66,-68.19 -43.68,-133.43 -80.15,-193.46 -8.29,-13.62 -6.18,-31.14 5.1,-42.43l88.77 -88.74 -195.79 -195.82 -88.78 88.74c-11.26,11.26 -28.76,13.39 -42.38,5.13 -60.01,-36.47 -125.26,-63.53 -193.47,-80.23 -15.47,-3.78 -26.38,-17.63 -26.41,-33.56l0 -125.43 -276.85 0 0 125.43c-0.02,15.94 -10.93,29.81 -26.41,33.61 -68.22,16.7 -133.45,43.74 -193.47,80.23 -13.62,8.24 -31.12,6.11 -42.38,-5.15l-88.78 -88.77 -195.79 195.82 88.74 88.74c11.28,11.29 13.37,28.82 5.1,42.43 -36.47,60.02 -63.51,125.27 -80.15,193.46 -3.8,15.5 -17.7,26.4 -33.66,26.38l-125.38 0 0 276.89 125.43 0c15.94,-0.02 29.84,10.85 33.64,26.35 16.64,68.22 43.68,133.47 80.15,193.46 8.27,13.64 6.18,31.17 -5.1,42.45l-88.77 88.72 195.77 195.84 88.8 -88.74c11.26,-11.28 28.76,-13.39 42.38,-5.13 60.02,36.47 125.26,63.53 193.47,80.25 15.48,3.75 26.4,17.63 26.41,33.58l0 125.41 276.85 0 0 -125.44c0.02,-15.95 10.93,-29.82 26.41,-33.59 68.22,-16.7 133.47,-43.76 193.47,-80.23 13.62,-8.26 31.12,-6.15 42.38,5.13l88.78 88.77 195.79 -195.84 -88.74 -88.74c-11.28,-11.26 -13.37,-28.79 -5.1,-42.43 36.49,-59.99 63.51,-125.26 80.15,-193.46 3.8,-15.48 17.67,-26.35 33.61,-26.37l125.43 0 0 -276.88 -125.43 0zm-1397.37 173.03l-69.22 0 0 -69.2 69.22 0 0 69.2zm657.57 -795.99l69.2 0 0 69.22 -69.2 0 0 -69.22zm-479.34 198.56l48.94 48.92 -48.94 48.95 -48.92 -48.95 48.92 -48.92zm0 1125.68l-48.92 -48.94 48.92 -48.94 48.94 48.94 -48.94 48.94zm548.55 198.54l-69.2 0 0 -69.2 69.2 0 0 69.2zm-34.58 -207.63c-305.84,0 -553.77,-247.93 -553.77,-553.76 0,-305.83 247.93,-553.76 553.77,-553.76 305.81,0 553.74,247.93 553.74,553.76 -0.36,305.69 -248.09,553.38 -553.74,553.76zm513.94 9.09l-48.94 -48.94 48.94 -48.94 48.94 48.94 -48.94 48.94zm0 -1027.89l-48.94 -48.94 48.94 -48.92 48.94 48.92 -48.94 48.94zm247.44 499.64l-69.22 0 0 -69.2 69.22 0 0 69.2z"/>
  </g>
 </g>
</svg>
