<?xml version="1.0" encoding="UTF-8"?>
<!DOCTYPE svg PUBLIC "-//W3C//DTD SVG 1.1//EN" "http://www.w3.org/Graphics/SVG/1.1/DTD/svg11.dtd">
<!-- Creator: CorelDRAW 2018 (64-Bit Оценочная версия) -->
<svg xmlns="http://www.w3.org/2000/svg" xml:space="preserve" width="71.5895mm" height="55.0048mm" version="1.1" style="shape-rendering:geometricPrecision; text-rendering:geometricPrecision; image-rendering:optimizeQuality; fill-rule:evenodd; clip-rule:evenodd"
viewBox="0 0 19440.49 14936.83"
 xmlns:xlink="http://www.w3.org/1999/xlink">
 <defs>
  <style type="text/css">
   <![CDATA[
    .fil0 {fill:white;fill-rule:nonzero}
   ]]>
  </style>
 </defs>
 <g id="Слой_x0020_1">
  <metadata id="CorelCorpID_0Corel-Layer"/>
  <g id="_1247795396944">
   <g>
    <path class="fil0" d="M18593.45 12892.21l-666.48 -1694.77c16.46,1.11 40.41,3.56 73.16,6.63 31.64,2.82 60.45,4.59 85.7,4.59 21.51,0 46.6,-1.77 76.33,-4.59 30.14,-3.07 56.13,-5.51 78.4,-6.63 123.69,414.72 287.41,857.14 491.35,1326.55 45.65,-101.97 98.98,-231.72 159.02,-389.08 61.18,-157.04 119.38,-313.75 174.39,-469.71 55.4,-156.8 108.7,-312.29 160.16,-467.75 10.48,1.11 26.94,3.56 49.78,6.63 22.27,2.82 41.71,4.59 59.31,4.59 13.66,0 30.5,-1.77 51.08,-4.59 20.77,-3.07 39.1,-5.51 54.83,-6.63 -83.83,203.29 -188.05,452.14 -311.91,747.67 -123.67,294.85 -221.53,529.29 -292.82,703.95 -72.23,173.82 -148.57,364.02 -229.76,570.02 -80.84,206.11 -157.56,407.06 -230.14,602.31 -16.48,-1.14 -36.69,-3.1 -60.45,-5.81 -23.76,-3.18 -40.79,-4.48 -52.19,-4.48 -13.28,0 -32.56,1.3 -57.62,4.48 -25.25,2.72 -43.42,4.67 -53.9,5.81 243.26,-515.3 390.5,-824.96 441.77,-929.18z"/>
    <path class="fil0" d="M15944.03 12900.06l0 -1682.34c16.27,1.41 40.22,3.67 70.36,6.65 29.93,2.8 56.86,4.48 80.27,4.48 20.56,0 45.84,-1.68 75.76,-4.48 29.57,-2.99 54.64,-5.24 74.49,-6.65l0 320.79c139.58,-227.51 341.64,-341.07 606.95,-341.07 214.61,0 369.72,55.75 463.84,166.33 94.47,110.85 141.83,283.83 141.83,520.16l0 1016.13c-19.66,-1.3 -45.87,-3.56 -78.59,-6.54 -32.56,-2.8 -57.08,-4.02 -72.04,-4.02 -17.6,0 -43.39,1.22 -76.14,4.02 -33.13,2.99 -58.19,5.24 -74.65,6.54l0 -935.7c0,-189.06 -28.65,-333.77 -86.46,-434.08 -57.62,-100.1 -167.44,-150.06 -330.59,-150.06 -186.37,0 -315.47,58.68 -386.78,175.89 -71.47,117.88 -107.37,293.69 -107.37,527.63l0 816.32c-19.12,-1.3 -45.68,-3.56 -78.23,-6.54 -32.56,-2.8 -57.05,-4.02 -72.02,-4.02 -17.79,0 -43.23,1.22 -76.17,4.02 -33.1,2.99 -58.19,5.24 -74.46,6.54z"/>
    <path class="fil0" d="M15370.75 12754.59c-42.85,0 -69.98,-12.63 -80.46,-37.88 -10.13,-25.63 -15.53,-70.36 -15.53,-135.1l0 -802.85c0,-387.56 -193.48,-581.32 -580.42,-581.32 -193.27,0 -385.26,63.41 -575.53,190.09l0 193.48 39.48 0c16.65,-52.57 63.25,-105.17 138.82,-158.86 75.79,-52.87 171.22,-79.43 287.03,-79.43 132.84,0 236.14,35.74 308.92,106.64 72.78,71.01 109.08,170.18 109.08,298.17 0,54.26 -11.24,95.97 -34.43,123.58 -23.57,27.02 -60.26,47.79 -110.01,61.56 -49.97,13.93 -128.01,29.65 -235,47.41 -143.16,21.34 -259.34,45.49 -349.33,72.61 -90.21,27.78 -164.67,74.43 -223.6,141.24 -59.14,67.07 -88.88,161.58 -88.88,283.37 0,123.58 46.38,224.82 139.58,303.95 92.44,78.97 205.05,118.81 336.4,118.81 202.63,0 379.09,-72.78 529.53,-217.98l32.72 -31.34c18.55,136.86 103.11,207.03 253.55,211.35 37.61,0 75.76,-3.56 114.32,-10.48 24.49,-3.48 60.42,-14.96 107.4,-34.62l0 -75.57c-37.42,8.77 -72.23,13.17 -103.65,13.17zm-382.46 -239.4l0 0c0,11.6 -32.18,47.44 -97.11,107.4 -34.62,34.43 -79.89,65.31 -134.91,91.7 -54.83,27.13 -105.53,40.3 -150.79,40.3 -110.22,0 -196.85,-27.59 -258.79,-82.42 -61.56,-54.91 -92.41,-135.45 -92.41,-242.85 0,-74.3 19.09,-135.56 56.48,-182.81 38.18,-47.82 86.65,-84.75 145.2,-110.77 58.19,-26.53 109.65,-43.75 153.05,-52.93 43.61,-8.8 128.36,-24.87 254.09,-47.9l125.19 -24.68 0 504.96z"/>
    <path class="fil0" d="M13411.53 11607.56c-53.14,-124.89 -130.59,-224.14 -232.75,-298.52 -102.16,-74.57 -222.65,-111.61 -360.92,-111.61 -122.2,0 -221.72,21.24 -298.82,63.71 -76.71,42.55 -132.84,88.04 -167.28,138.36 -34.05,49.5 -67.54,108.7 -99.17,177.38l-6.9 0 0 -358.86c-17.79,1.11 -40.05,3.53 -66.45,6.54 -26.75,2.8 -49.02,4.56 -67.35,4.56 -20.77,0 -44.73,-1.77 -71.47,-4.56 -26.75,-3.01 -47.9,-5.43 -62.51,-6.54l0 2603.37c14.61,-1.14 36.88,-3.1 66.45,-5.81 28.81,-3.1 51.81,-4.29 67.54,-4.29 13.47,0 34.98,1.19 64.17,4.29 28.81,2.72 52.22,4.67 69.63,5.81l0 -1219.85 6.9 0c113.78,226.88 285.54,340.45 515.49,340.45 141.83,0 267.18,-37.34 376.65,-111.8 109.25,-74.46 194.76,-182.7 255.59,-323.78 60.8,-141.37 90.92,-306.78 90.92,-497.14 0,-143.49 -26.75,-277.66 -79.7,-401.71zm-260.83 806.6l0 0c-30.5,115.25 -80.27,206.73 -148.73,275.98 -69.25,68.65 -157.37,102.81 -264.03,102.81 -162.58,0 -285.13,-63.25 -367.66,-189.74 -83.26,-126.38 -124.59,-289.64 -124.59,-490.46 0,-206.3 37.96,-389.95 113.18,-551.96 75.41,-161.87 201.14,-243.07 375.72,-243.07 165.76,0 284.02,67.45 355.3,202.25 71.09,134.72 106.64,302.76 106.64,503.52 0,145.55 -15.15,275.38 -45.84,390.66z"/>
    <path class="fil0" d="M9048.81 12900.06l0 -1682.34c13.63,1.41 35.74,3.67 64.71,6.65 29.03,2.8 55.02,4.48 77.47,4.48 19.66,0 43.42,-1.68 70.55,-4.48 27.32,-2.99 50.89,-5.24 71.09,-6.65l0 303.22c126.68,-215.75 302,-323.5 526.71,-323.5 118.4,0 225.64,30.5 321.41,92.06 95.99,61.37 161.85,146.86 197.39,255.59 139.04,-231.64 325.19,-347.64 557.96,-347.64 208.45,0 355.68,56.67 442.5,171.3 86.44,113.46 129.67,285.24 129.67,515.19l0 1016.13c-18.33,-1.3 -43.23,-3.56 -73.54,-6.54 -30.12,-2.8 -53.14,-4.02 -68.65,-4.02 -17.03,0 -41.36,1.22 -72.78,4.02 -32.02,2.99 -55.21,5.24 -68.68,6.54l0 -935.7c0,-187.64 -26.21,-331.92 -78.78,-432.86 -52.76,-100.86 -158.48,-151.28 -316.23,-151.28 -160.52,0 -269.06,53.9 -325.38,161.85 -55.56,107.89 -83.45,243.91 -83.45,407.52l0 950.47c-20.94,-1.3 -46,-3.56 -75.95,-6.54 -29.38,-2.8 -52,-4.02 -66.04,-4.02 -16.29,0 -40.43,1.22 -73.16,4.02 -32.37,2.99 -55.59,5.24 -69.44,6.54l0 -1030.82c0,-167.01 -29.93,-290.29 -90.18,-369.45 -60.61,-79.7 -156.04,-119.57 -286.25,-119.57 -167.09,0 -280.08,44.54 -338.66,133.8 -58.93,89.07 -88.5,209.83 -88.5,361.68l0 1024.36c-20.2,-1.3 -45.08,-3.56 -75.03,-6.54 -29.74,-2.8 -51.65,-4.02 -66.61,-4.02 -17.22,0 -42.09,1.22 -73.35,4.02 -31.99,2.99 -55.21,5.24 -68.84,6.54z"/>
    <path class="fil0" d="M8488.43 11596.43c-60.83,-127.41 -145.39,-226.02 -255.04,-295.26 -109.44,-69.14 -234.81,-103.73 -376.08,-103.73 -147.64,0 -281.79,34.98 -403.2,104.96 -121.06,69.6 -215.94,167.66 -284.97,294.69 -69.06,126.87 -103.3,271.58 -103.3,434.27 0,133.85 19.09,255.02 57.08,363.34 37.96,108.05 90.18,199.65 157.18,274.68 66.97,74.84 145.36,132.08 235.19,171.19 90.18,39.86 185.23,59.5 285.32,59.5 124.62,0 235.76,-23 333.61,-69.22 96.76,-46.22 178.68,-110.39 245.68,-191.42 66.42,-81.39 116.2,-173.63 149.68,-277.01 33.13,-102.62 49.78,-209.83 49.78,-320.76 0,-168.96 -30.12,-317.69 -90.92,-445.21zm-230.52 763.1l0 0c-32.02,119.35 -84.02,221.53 -156.06,306.29 -71.83,84.86 -164.07,126.84 -276.17,126.84 -163.5,0 -285.51,-69.68 -365.4,-209.45 -80.46,-138.74 -120.49,-306.1 -120.49,-500.39 0,-134.42 16.08,-260.07 48.83,-377.95 32.18,-117.04 87.2,-212.93 164.1,-287.69 77.26,-75.11 177.54,-112.53 301.43,-112.53 107.4,0 194.6,36.28 262.32,108.51 67.16,72.04 115.44,162.42 145.2,271.69 29.55,108.89 43.96,221.89 43.96,339.77 0,104.2 -15.91,216.08 -47.71,334.91z"/>
    <path class="fil0" d="M6546.62 12441.48l-17.22 241.36c-203.56,145.2 -467.94,217.22 -792.02,217.22 -194.6,0 -369.53,-31.8 -525.21,-95.23 -155.68,-63.06 -288.88,-155.19 -399.27,-275.22 -109.84,-119.95 -193.29,-265.12 -250.18,-435.19 -56.67,-169.69 -85.32,-358.21 -85.32,-565.7 0,-278.7 59.14,-519.89 177.57,-725.05 117.31,-204.97 279.73,-361.39 485,-468.03 205.81,-106.86 435,-159.81 686.87,-159.81 259.5,0 516.2,58.76 769.37,176.46 -27.89,76.33 -53.14,174.94 -75.22,294.96l-24.49 3.83c-22.65,-31.99 -66.26,-74.08 -130.62,-126.46 -65.12,-52.41 -146.12,-99.74 -243.42,-141.29 -97.49,-41.44 -200.57,-61.91 -310.41,-61.91 -158.67,0 -300.86,31.99 -424.9,95.8 -124.26,63.98 -227.54,152.67 -310.41,265.12 -82.53,112.45 -144.44,242.88 -186.18,390.31 -41.71,147.43 -62.67,304.6 -62.67,470.96 0,240.6 40.41,452.03 121.06,635.38 80.43,183.16 194.03,325.08 340.34,424.06 145.58,99.09 311.91,148.95 498.28,148.95 165.4,0 314.51,-35.27 447.55,-104.79 133.61,-69.68 237.8,-138.55 311.53,-205.7z"/>
   </g>
   <path class="fil0" d="M14921.49 7227.76c-16.65,1.71 -33.13,3.01 -49.97,3.94 -17.38,1.87 -30.12,2.44 -40.22,2.44 -20.01,0 -41.9,-1.33 -65.85,-3.37 -23.38,-3.01 -46.22,-4.7 -68.11,-6.38l0 1257.92c-125.95,-223.03 -300.69,-334.72 -525.59,-334.72 -142.95,0 -268.87,37.96 -378.33,114.51 -109.46,76.52 -193.65,180.91 -252.95,312.26 -59.14,132 -88.5,277.86 -88.5,437.45 0,182.27 29.17,335.86 87.01,461.51 57.81,125.46 137.71,219.47 238.72,281.79 101.43,62.29 215.94,93.36 344.28,93.36 247.93,0 439.89,-119.84 575.37,-359.54l0 331.92c12.9,-1.11 34.6,-3.45 65.28,-6.35 30.88,-2.8 53.71,-4.1 68.68,-4.1 13.47,0 34.62,1.3 62.48,4.1 27.7,2.91 52.03,5.24 71.47,6.35l0 -2596.47c-12.14,0.49 -27.51,1.68 -43.77,3.37zm-339.04 2258.77l0 0c-76.33,158.56 -201.9,237.99 -377.22,237.99 -109.27,0 -198.7,-32.75 -267.18,-98.41 -68.84,-66.42 -117.69,-149.3 -147.62,-249.5 -29.38,-100.29 -43.96,-205.73 -43.96,-316.5 0,-513.89 166.33,-770.78 499.01,-770.78 155.68,0 269.98,66.69 342.59,199.84 73.16,133.69 109.27,287.01 109.27,460.37 0,199.35 -38.18,378.03 -114.89,537z"/>
   <path class="fil0" d="M12852.07 8491.31c-65.47,-116.2 -152.1,-202.44 -260.99,-259.72 -108.7,-57.05 -226.78,-85.78 -354.95,-85.78 -168.39,0 -312.83,36.77 -433.51,110.01 -120.52,73.92 -212,174.85 -273.94,304.52 -62.29,129.21 -92.98,274.6 -92.98,436.14 0,175.34 34.98,327.06 104.22,455.7 69.79,128.64 167.09,226.69 292.44,294.23 125.16,68.11 267.94,102.08 428.3,102.08 209.75,0 409.37,-68.02 600.6,-204.81l4.7 -179.88c-167.28,159.86 -340.37,239.4 -517.94,239.4 -127.6,0 -237.07,-28.92 -329.29,-86.08 -91.89,-57.05 -161.3,-134.34 -207.88,-232.4 -47.33,-98.03 -70.55,-207.5 -70.55,-328.72 0,-32.37 1.11,-56.62 3.37,-72.8l492.46 0c235.38,0 471.88,3.56 709.71,10.48 0,-9.26 0.35,-22.54 1.49,-39.38 1.3,-16.56 1.87,-29.38 1.87,-36.96 0,-167.74 -32.56,-310.22 -97.14,-426.04zm-1108.41 364.4l0 0c7.69,-103.76 29.93,-201.44 66.61,-293.01 37.23,-91.7 91.49,-166.06 163.53,-223.71 71.66,-57.24 159.05,-86.16 262.32,-86.16 281.79,0 427.54,200.87 436.9,602.88l-929.37 0z"/>
   <path class="fil0" d="M13468.77 5236.01l-83.45 228.38 -29.17 0c-47.71,-61.83 -80.27,-99.93 -98.6,-114.32 -39.67,-43.69 -93.01,-77.94 -160.16,-102.08 -66.61,-24.22 -133.03,-36.28 -198.53,-36.28 -133.58,0 -247.36,32.83 -341.64,98.6 -94.31,65.12 -165.21,152.29 -212.38,260.18 -47.33,108.4 -70.71,225.36 -70.71,350.82 0,145.28 27.86,275.6 82.88,391.5 55.21,116.01 133.03,205.81 232.94,270.01 100.48,63.98 215.37,96.27 345.23,96.27 66.8,0 128.36,-9.26 183.92,-27.59 55.75,-18.06 107.75,-42.85 154.92,-73.92 47.9,-31.26 101.59,-72.04 162.04,-123.58l21.89 10.56 -18.14 158.48c-165.05,115.93 -349.71,173.63 -554.79,173.63 -195.33,0 -362.8,-37.04 -503.87,-111.31 -141.07,-74.38 -247.36,-176.46 -318.83,-306.21 -71.28,-130.4 -107.02,-276.82 -107.02,-440.54 0,-173.71 39.84,-324.81 120.3,-452.33 80.46,-128.17 191.8,-225.55 334.56,-291.89 142.95,-66.88 304.41,-100.37 485.35,-100.37 220.04,0 410.51,47.33 573.28,142z"/>
   <g>
    <path class="fil0" d="M11439.06 4698.36c0,51.19 -18.9,94.77 -55.56,131 -37.45,35.63 -80.27,53.8 -129.31,53.8 -49.78,0 -92.98,-18.17 -129.67,-54.37 -37.04,-36.31 -54.99,-79.7 -54.99,-130.43 0,-50.7 17.95,-94.2 54.26,-130.48 36.12,-36.23 79.7,-54.47 130.4,-54.47 50.16,0 93.55,18.25 129.86,53.9 36.88,36.12 55.02,79.7 55.02,131.05z"/>
    <path class="fil0" d="M11399.01 5094.21l0 1702.46c-18.9,-1.11 -44.15,-3.53 -74.84,-6.44 -30.85,-3.1 -54.45,-4.21 -70.17,-4.21 -17.57,0 -42.28,1.11 -74.46,4.21 -32.37,2.91 -55.75,5.32 -69.98,6.44l0 -1702.46c14.23,1.11 36.31,3.45 65.88,6.44 29.55,2.91 56.13,4.67 78.56,4.67 21.15,0 45.84,-1.77 73.73,-4.67 27.7,-2.99 51.84,-5.32 71.28,-6.44z"/>
   </g>
   <g>
    <g>
     <path class="fil0" d="M2180.12 8127.75c-19.74,-4.67 -62.59,-14.88 0,0 13.74,3.29 9.12,2.17 0,0 525.02,-4812.55 3224.39,-7335.71 3773.94,-8127.72l-85.89 1.11c-1877.99,2169.51 -3535.18,4714.63 -3688.04,8126.61 152.67,-3412.25 1809.7,-5957.1 3687.85,-8126.61 -2989.77,1436.34 -3905.45,5232.27 -3687.85,8126.61z"/>
     <path class="fil0" d="M2550.58 11440.58c-0.27,-0.76 -0.54,-1.49 -0.87,-2.34 0.54,0.73 1.06,1.58 1.63,2.34 -2.58,-5.89 -4.92,-11.7 -7.49,-17.6 -2046.66,-5181.81 444.56,-9239.25 936.84,-10064.1l-115.82 0.84c-0.16,0.38 -0.46,0.84 -0.68,1.33 -3019.47,2202.42 -2879.62,7325.85 -814.72,10076.89 0.38,0.84 0.73,1.79 1.11,2.63z"/>
     <polygon class="fil0" points="2548.71,11440.29 2550.58,11440.58 2545.91,11434.12 "/>
     <path class="fil0" d="M5977.03 14935.88c0.79,0.27 1.63,0.65 2.47,0.95l-6.65 -2.82c-634.11,-294.04 -6644.65,-3322.12 -5020.35,-10867.41l-106.29 0c-0.11,0.68 -0.27,1.33 -0.35,2.06 -2484.21,5048.42 887.88,9377.2 5129.81,10866.76l3.26 1.41c-0.54,-0.3 -1.36,-0.68 -1.9,-0.95z"/>
    </g>
    <path class="fil0" d="M10212.02 7812.31l289.83 -107.97 0 451.87 384.11 0c-5.05,33.02 -7.28,55.67 -7.28,69.6 0,19.25 2.23,40.03 7.28,62.67l-384.11 0 0 873.59 0 126.03c0,131.62 17.57,237.72 51.81,317.99 34.43,80.62 106.29,120.68 216.32,120.68 21.7,0 75.95,-8.23 162.96,-24.44l0 83.48c-118.26,41.82 -219.85,62.67 -304.41,62.67 -93.01,0 -169.72,-15.64 -229.98,-47.06 -60.23,-31.99 -106.26,-87.01 -138.28,-166.98 -31.96,-79.54 -48.26,-190.31 -48.26,-332.41l0 -1013.55 -224.52 0c4.86,-16.29 7.09,-38.34 7.09,-66.23 0,-29.95 -2.23,-52.22 -7.09,-66.04l224.52 0 0 -343.9z"/>
    <path class="fil0" d="M7098.96 9848.48l0 -1682.36c16.46,1.19 40.22,3.56 70.36,6.54 29.93,2.8 57.24,4.59 80.24,4.59 20.61,0 45.87,-1.79 75.79,-4.59 29.57,-2.99 54.64,-5.35 74.84,-6.54l0 320.87c139.2,-227.51 341.29,-341.18 606.6,-341.18 214.61,0 369.53,55.67 463.84,166.33 94.66,110.88 141.83,283.75 141.83,520.08l0 1016.27c-19.66,-1.03 -45.84,-3.56 -78.4,-6.54 -32.75,-2.91 -57.08,-4.21 -72.23,-4.21 -17.6,0 -43.23,1.3 -75.95,4.21 -33.32,2.99 -58.38,5.51 -74.68,6.54l0 -935.81c0,-188.89 -28.78,-333.71 -86.63,-433.92 -57.62,-100.29 -167.44,-150.25 -330.62,-150.25 -186.34,0 -315.63,58.76 -386.56,175.89 -71.47,117.96 -107.21,293.96 -107.21,527.93l0 816.16c-19.44,-1.03 -45.84,-3.56 -78.59,-6.54 -32.56,-2.91 -56.86,-4.21 -72.04,-4.21 -17.57,0 -43.39,1.3 -75.95,4.21 -33.13,2.99 -58.19,5.51 -74.65,6.54z"/>
    <g>
     <path class="fil0" d="M9484.76 7750.07c0,51.19 -18.71,94.77 -55.59,130.89 -37.42,35.74 -80.24,53.88 -129.29,53.88 -49.59,0 -92.98,-18.14 -129.67,-54.26 -36.85,-36.47 -54.99,-79.89 -54.99,-130.51 0,-50.7 18.14,-94.2 54.45,-130.51 36.09,-36.28 79.51,-54.34 130.21,-54.34 50.16,0 93.55,18.06 129.86,53.8 36.85,36.12 55.02,79.7 55.02,131.05z"/>
     <path class="fil0" d="M9444.71 8145.81l0 1702.68c-18.9,-1.3 -44.15,-3.67 -74.84,-6.54 -30.88,-3.1 -54.45,-4.32 -70.17,-4.32 -17.57,0 -42.28,1.22 -74.27,4.32 -32.56,2.88 -55.94,5.24 -69.98,6.54l0 -1702.68c14.04,1.22 36.12,3.48 65.69,6.46 29.55,3.1 56.29,4.67 78.56,4.67 21.15,0 45.84,-1.58 73.73,-4.67 27.7,-2.99 51.84,-5.24 71.28,-6.46z"/>
    </g>
    <path class="fil0" d="M9832.22 4760.39l289.8 -107.94 0 452.03 383.92 0c-4.86,33.05 -7.09,55.59 -7.09,69.52 0,19.39 2.23,40.05 7.09,62.78l-383.92 0 0 873.59 0 126.11c0,131.46 17.38,237.64 52,317.91 34.43,80.43 106.29,120.49 216.1,120.49 21.89,0 76.17,-8.04 162.99,-24.33l0 83.45c-118.26,41.74 -219.66,62.67 -304.25,62.67 -92.98,0 -169.69,-15.61 -229.95,-46.95 -60.42,-31.91 -106.45,-87.2 -138.44,-167.09 -31.8,-79.51 -48.26,-190.28 -48.26,-332.49l0 -1013.36 -224.55 0c4.7,-16.27 7.14,-38.37 7.14,-66.23 0,-30.14 -2.44,-52.03 -7.14,-66.07l224.55 0 0 -344.09z"/>
    <path class="fil0" d="M8801.8 6796.67l0 -2623.95c23.79,1.77 47.9,3.53 73.37,6.35 24.49,2.34 48.83,3.56 70.9,3.56 9.72,0 24.33,-0.57 43.39,-2.34 18.9,-1.22 36.88,-2.44 55.02,-4.05 18.33,-1.77 33.86,-2.99 46.79,-3.53l0 2623.95c-18.9,-1.11 -44.34,-3.53 -74.84,-6.35 -31.07,-2.99 -54.64,-4.1 -70.36,-4.1 -17.41,0 -42.12,1.11 -74.3,4.1 -32.37,2.82 -55.94,5.24 -69.98,6.35z"/>
    <path class="fil0" d="M8181.92 6651.5c-43.2,0 -69.95,-12.82 -80.81,-38.18 -10.1,-25.44 -15.15,-70.36 -15.15,-134.91l0 -802.96c0,-387.59 -193.29,-581.43 -580.42,-581.43 -193.27,0 -385.26,63.52 -575.34,190.28l0 193.29 39.29 0c16.65,-52.6 63.06,-104.98 139.01,-158.67 75.6,-52.95 171.03,-79.7 286.84,-79.7 132.84,0 236.12,35.9 308.73,106.72 72.78,71.01 109.08,170.18 109.08,298.36 0,54.15 -11.24,95.8 -34.62,123.39 -23,27.13 -60.26,47.9 -109.63,61.64 -50.16,14.04 -128.01,29.57 -235.03,47.52 -142.95,21.15 -259.12,45.46 -349.3,72.51 -90.02,27.78 -164.67,74.46 -223.6,141.56 -59.14,66.8 -88.88,161.28 -88.88,283.1 0,123.29 46.38,224.87 139.58,303.92 92.44,78.97 205.08,118.72 336.21,118.72 202.66,0 379.28,-72.67 529.53,-217.98l32.75 -31.04c18.52,136.48 103.27,207.03 253.52,210.86 37.42,0 75.57,-3.37 114.51,-10.29 24.3,-3.37 60.23,-14.96 107.21,-34.51l0 -75.71c-37.61,8.8 -71.85,13.5 -103.49,13.5zm-382.43 -239.59l0 0c0,11.7 -31.99,47.41 -97.11,107.29 -34.43,34.62 -79.89,65.23 -134.72,91.79 -55.02,27.02 -105.53,40.52 -150.98,40.52 -110.41,0 -196.66,-27.89 -258.79,-82.53 -61.34,-54.83 -92.44,-135.64 -92.44,-242.96 0,-74.38 19.12,-135.45 56.7,-182.89 38.18,-47.71 86.63,-84.56 145.01,-110.58 58.19,-26.56 109.46,-43.96 153.08,-53.14 43.39,-8.61 128.34,-24.71 253.9,-47.9l125.35 -24.87 0 505.28z"/>
    <path class="fil0" d="M6034.71 5499.02c-147.64,-98.71 -317.72,-154.11 -511.94,-166.63 185.42,-46.14 337.16,-130.78 455.23,-253.55 118.26,-122.63 177,-273.92 177,-454.28 0,-135.26 -33.51,-242.5 -99.55,-323.88 -66.04,-81.39 -164.07,-139.39 -295.61,-174.85 -130.97,-35.17 -296.57,-53.31 -497.52,-53.31l-784.93 0 0 2724.27 572.57 0c193.84,0 356.61,-8.53 488.69,-26.67 132.87,-17.98 251.11,-62.48 356.44,-133.41 240.62,-165.4 360.76,-390.85 360.76,-676.2 0,-208.64 -73.54,-362.72 -221.15,-461.48zm-1204.78 -1279.16l0 0 296.38 0c224.9,0 394.41,36.12 509.3,108.13 113.94,72.04 171.57,198.53 171.57,380.01 0,108.7 -26.75,204.13 -79.35,288.15 -53.5,83.45 -129.64,149.49 -229,196.85 -122.17,55.94 -290.59,83.83 -504.82,83.83l-164.07 0 0 -1056.97zm967.33 2129.45l0 0c-57.46,94.66 -137.52,168.12 -239.86,220.61 -102.19,52.93 -218.17,78.94 -346.91,78.94l-380.56 0 0 -1224.41 224.14 0c264.58,0 468.7,45.27 612.95,135.45 144.09,89.91 216.29,246.63 216.29,469.27 0,119 -28.81,225.64 -86.06,320.14z"/>
    <g>
     <path class="fil0" d="M6560.66 7128.05c-14.23,1.87 -28.46,3.29 -43.23,4.59 -14.2,1.96 -25.82,2.53 -34.41,2.53 -17.6,0 -36.5,-1.33 -55.97,-3.83 -19.63,-3.29 -39.29,-5.35 -57.62,-7.22l0 1459.99c0,219.31 -28.81,410.51 -87.01,571.81 -58,161.74 -151.94,287.77 -282.15,377.76 -106.67,74.3 -240.24,117.5 -399.1,130.62 -116.01,-8.64 -216.86,-29.11 -302.19,-61.29 -115.25,-43.77 -207.31,-109.74 -275.41,-197.2 -68.3,-87.47 -116.93,-195.17 -146.5,-323.61 -29,-127.98 -43.77,-281.49 -43.77,-458.98l0 -1499.09c-14.23,0.57 -33.13,1.87 -55.94,3.94 -22.46,1.87 -46.22,3.29 -69.06,4.59 -23.76,1.96 -41.17,2.53 -52.57,2.53 -14.23,0 -32.56,-0.57 -55.4,-1.87 -0.54,0 -0.92,0 -1.49,0l-120.68 -8.23 -0.76 1564.86c1.33,121.33 9.37,234.9 23.6,339.31 14.96,104.41 43.2,204.24 85.13,298.82 42.66,94.85 103.27,177.11 182.97,246.98 106.67,93.17 230.71,161.74 372.74,206.19 110.2,35.17 238.18,56.02 382.43,63.6 194.22,-11.6 366.16,-53.96 515.3,-127.6 177.38,-88.12 314.51,-219.36 411.81,-393.48 80.27,-145.66 126.65,-318.26 140.15,-517.91 2.8,-40.22 4.67,-81.3 4.67,-123.75l0 -1557.97c-9.18,0.57 -20.77,1.87 -35.55,3.94z"/>
    </g>
   </g>
  </g>
  <g id="_1247795408400">
   <polygon class="fil0" points="362.06,250.29 362.06,1019.17 275.82,1019.17 275.82,250.29 19.5,250.29 19.5,170.16 615.89,170.16 615.89,250.29 "/>
   <polygon class="fil0" points="1091.46,780.12 1381.02,170.16 1461.1,170.16 1461.1,1019.17 1374.86,1019.17 1374.86,374.72 1371.19,374.72 1122.26,888.5 1054.53,888.5 803.15,383.35 798.24,383.35 793.32,1019.17 707.05,1019.17 707.05,170.16 790.82,170.16 1086.55,780.12 "/>
  </g>
 </g>
</svg>
