<svg xmlns="http://www.w3.org/2000/svg" width="48" height="48" viewBox="0 0 48 48"><g fill="none" fill-rule="evenodd"><path fill="#FFF" d="M-116-59h1440v2537H-116z"/><path d="M17.15 22.583h5.34V2.969h-5.34v19.614zm-2.917 2.795h11.172V.177H14.233v25.201zM.205 30.907h47.483v-2.784H.205zm2.906 10.88h13.725v-5.315H3.111v5.315zM.205 47.723H3.11v-3.155h16.632v-10.88H.205v14.035zM36.518 2.97v22.408h2.915V8.56l5.338-5.588v22.406h2.918V.177H43.59l-4.158 4.34V.178h-4.096L28.26 7.502v17.876h2.919V8.561zM25.494 41.787h8.098v-5.315h-8.098v5.315zm11.13 0h8.16v-5.315h-8.16v5.315zm-14.038 2.781h11.006v3.155h3.032v-3.155h11.065v-10.88H22.586v10.88zM3.123 8.56L8.46 2.973v19.61H3.123V8.562zM8.46 25.379h2.917V.177H7.282L.205 7.502v17.876H8.46z" fill="#072833"/></g></svg>